<svg width="180" height="180" viewBox="0 0 180 180" fill="none" xmlns="http://www.w3.org/2000/svg">
  <rect width="180" height="180" rx="42" fill="#0B1A13"/>
  <rect x="13" y="13" width="154" height="154" rx="34" fill="url(#g)" fill-opacity="0.18"/>
  <circle cx="90" cy="66" r="31" fill="#D7B08A"/>
  <path d="M57 74C58 111 73 129 91 129C110 129 124 110 124 74C114 91 67 91 57 74Z" fill="#161D18"/>
  <path d="M52 163C56 125 72 108 90 108C109 108 124 125 128 163H52Z" fill="#111915"/>
  <path d="M54 67C56 37 72 23 93 23C112 23 128 40 128 65C110 57 75 56 54 67Z" fill="#121A15"/>
  <path d="M65 88C75 107 105 108 116 88C113 120 103 140 90 140C77 140 68 120 65 88Z" fill="#231A12"/>
  <rect x="112" y="82" width="29" height="10" rx="5" fill="#1FE28A"/>
  <circle cx="144" cy="87" r="8" fill="#1FE28A"/>
  <defs>
    <linearGradient id="g" x1="14" y1="13" x2="167" y2="167" gradientUnits="userSpaceOnUse">
      <stop stop-color="#1FE28A"/>
      <stop offset="1" stop-color="#F8C957"/>
    </linearGradient>
  </defs>
</svg>
